<svg width="23" height="23" viewBox="0 0 23 23" fill="none" xmlns="http://www.w3.org/2000/svg">
  <path d="M10.2129 3.54015H3.21289C2.68246 3.54015 2.17375 3.75086 1.79868 4.12593C1.4236 4.501 1.21289 5.00971 1.21289 5.54015V19.5401C1.21289 20.0706 1.4236 20.5793 1.79868 20.9544C2.17375 21.3294 2.68246 21.5401 3.21289 21.5401H17.2129C17.7433 21.5401 18.252 21.3294 18.6271 20.9544C19.0022 20.5793 19.2129 20.0706 19.2129 19.5401V12.5401M17.7129 2.04014C18.1107 1.64232 18.6503 1.41882 19.2129 1.41882C19.7755 1.41882 20.3151 1.64232 20.7129 2.04014C21.1107 2.43797 21.3342 2.97753 21.3342 3.54014C21.3342 4.10275 21.1107 4.64232 20.7129 5.04014L11.2129 14.5401L7.21289 15.5401L8.21289 11.5401L17.7129 2.04014Z" stroke="#07619D" stroke-width="2" stroke-linecap="round" stroke-linejoin="round"/>
  </svg>
